<svg width="42" height="37" viewBox="0 0 42 37" fill="none" xmlns="http://www.w3.org/2000/svg">
<path d="M24.8232 26.2737C22.8269 28.1254 20.2078 29.1218 17.5099 29.056C14.812 28.9902 12.2426 27.8671 10.3356 25.9201C6.23695 21.7409 6.23695 14.9481 10.3356 10.7688C14.3228 6.70319 20.6998 6.58956 24.8232 10.4153L21.4427 12.2713C20.3819 11.6024 19.1652 11.2345 17.9184 11.2057C16.6714 11.1768 15.4396 11.4881 14.3502 12.1072C13.2607 12.7263 12.3532 13.631 11.7214 14.7275C11.0897 15.824 10.7566 17.0727 10.7566 18.3445C10.7566 19.6162 11.0897 20.8649 11.7214 21.9614C12.3532 23.058 13.2607 23.9626 14.3502 24.5817C15.4396 25.2009 16.6714 25.5121 17.9183 25.4832C19.1652 25.4544 20.3819 25.0865 21.4427 24.4176L24.8232 26.2737ZM30.1477 5.71836C30.5191 6.09712 30.8782 6.48853 31.2126 6.9052L28.0426 8.6476C27.9312 8.50871 27.795 8.36982 27.6712 8.24359C22.1981 2.66283 13.3322 2.66283 7.85906 8.24359C2.38596 13.8243 2.38596 22.8646 7.85906 28.4453C13.3322 34.0261 22.1981 34.0261 27.6712 28.4453C27.795 28.3191 27.9312 28.1802 28.0426 28.0413L31.2126 29.7837C30.8782 30.2004 30.5191 30.5918 30.1477 30.9706C23.3125 37.9402 12.2177 37.9402 5.38255 30.9706C-1.45263 24.001 -1.45263 12.688 5.38255 5.71836C12.2177 -1.2513 23.3125 -1.2513 30.1477 5.71836ZM34.858 15.8571L37.966 9.5062L21.8687 18.3445L36.2214 27.1827L34.858 20.8318H41.8127V15.8319L34.858 15.8571Z" fill="#AB1CAF"/>
</svg>
